<svg id="SvgjsSvg1001" width="288" height="288" xmlns="http://www.w3.org/2000/svg" version="1.1" xmlns:xlink="http://www.w3.org/1999/xlink" xmlns:svgjs="http://svgjs.com/svgjs"><defs id="SvgjsDefs1002"></defs><g id="SvgjsG1008" transform="matrix(0.9167,0,0,0.9167,11.89085882098675,11.981615576934814)"><svg xmlns="http://www.w3.org/2000/svg" enable-background="new 0 0 176.6 33" viewBox="0 0 176.6 33" width="288" height="288"><path fill="#ffffff" d="M28.5,9.3C28.5,9.3,28.5,9.3,28.5,9.3c0-0.3-0.1-0.6-0.3-0.8c0,0,0,0,0,0c0,0,0,0-0.1-0.1c0,0-0.1,0-0.1-0.1	c0,0,0,0,0,0L15.5,1.2c0,0-0.1,0-0.1,0C15.3,1,15.1,1,14.9,1c-0.1,0-0.2,0-0.3,0.1c-0.1,0-0.1,0.1-0.2,0.1L2,8.3c0,0,0,0,0,0
	c0,0,0,0,0,0c0,0,0,0,0,0C1.8,8.4,1.7,8.5,1.7,8.5c0,0,0,0,0,0C1.5,8.7,1.4,9,1.4,9.3c0,0,0,0,0,0c0,0,0,0,0,0v14.3
	c0,0.4,0.2,0.8,0.6,1l12.4,7.1c0,0,0,0,0.1,0c0,0,0,0,0,0c0.1,0,0.1,0.1,0.2,0.1c0,0,0,0,0,0c0.1,0,0.2,0,0.2,0c0.1,0,0.2,0,0.2,0
	c0,0,0,0,0,0c0.1,0,0.1,0,0.2-0.1c0,0,0,0,0,0c0,0,0,0,0.1,0l12.4-7.1c0.4-0.2,0.6-0.6,0.6-1L28.5,9.3C28.5,9.3,28.5,9.3,28.5,9.3z
	 M6.3,8.8L14.7,4c0.2-0.1,0.4-0.1,0.5,0l8.4,4.9C24,9,24,9.6,23.6,9.8l-8.4,4.9c-0.2,0.1-0.4,0.1-0.5,0L6.3,9.8
	C5.9,9.6,5.9,9,6.3,8.8z M13.5,27.3c0,0.4-0.4,0.7-0.8,0.5l-8.4-4.9C4.1,22.8,4,22.6,4,22.5v-9.7c0-0.4,0.4-0.7,0.8-0.5l8.4,4.9
	c0.2,0.1,0.3,0.3,0.3,0.5V27.3z M25.9,22.5c0,0.2-0.1,0.4-0.3,0.5l-8.4,4.9c-0.4,0.2-0.8-0.1-0.8-0.5v-9.7c0-0.2,0.1-0.4,0.3-0.5
	l8.4-4.9c0.4-0.2,0.8,0.1,0.8,0.5V22.5z" class="color9fef00 svgShape"></path><path fill="#ffffff" d="M48.2 22.5v-4.6c0-.2-.1-.3-.3-.3h-4c-.2 0-.3.1-.3.3v4.6c0 .2-.1.3-.3.3h-2.4c-.2 0-.3-.1-.3-.3V10.7c0-.2.1-.3.3-.3h2.4c.2 0 .3.1.3.3v4.1c0 .2.1.3.3.3h4c.2 0 .3-.1.3-.3v-4.1c0-.2.1-.3.3-.3H51c.2 0 .3.1.3.3v11.9c0 .2-.1.3-.3.3h-2.4C48.4 22.8 48.2 22.7 48.2 22.5zM57.9 20.3l-.7 2.2c0 .1-.2.2-.3.2h-2.6c-.2 0-.3-.2-.3-.4l4-11.9c0-.1.2-.2.3-.2H62c.1 0 .2.1.3.2l4 11.9c.1.2-.1.4-.3.4h-2.6c-.1 0-.2-.1-.3-.2l-.7-2.2c0-.1-.2-.2-.3-.2H58C58.1 20.2 58 20.3 57.9 20.3zM61.5 16.8c-.5-1.5-.9-3-1.3-4.5l0 0c-.4 1.5-.8 3-1.2 4.5l-.1.5c-.1.2.1.4.3.4h2.2c.2 0 .3-.2.3-.4L61.5 16.8zM79.2 14.9h-2.6c-.1 0-.3-.1-.3-.2-.2-1.2-1-1.9-2.3-1.9-1.6 0-2.7 1.5-2.7 3.9 0 2.4 1 3.9 2.6 3.9 1.2 0 2.1-.7 2.3-2 0-.1.1-.2.3-.2h2.6c.2 0 .3.2.3.3-.4 2.9-2.4 4.5-5.5 4.5-3.6 0-5.8-2.5-5.8-6.5s2.2-6.5 5.8-6.5c3.1 0 5.1 1.7 5.4 4.4C79.5 14.7 79.4 14.9 79.2 14.9zM93.4 22.8h-3.1c-.1 0-.2 0-.2-.1L86.3 17l0 0v5.4c0 .2-.1.3-.3.3h-2.4c-.2 0-.3-.1-.3-.3V10.7c0-.2.1-.3.3-.3H86c.2 0 .3.1.3.3v5.1l0 0 3.6-5.2c.1-.1.1-.1.2-.1H93c.2 0 .4.3.2.5l-4 5.2c-.1.1-.1.2 0 .4l4.4 5.9C93.7 22.5 93.6 22.8 93.4 22.8zM101.8 12.1v10.4c0 .2-.1.3-.3.3h-1c-.2 0-.3-.1-.3-.3V12.1c0-.2-.1-.3-.3-.3h-3.7c-.2 0-.3-.1-.3-.3v-.9c0-.2.1-.3.3-.3h9.5c.2 0 .3.1.3.3v.9c0 .2-.1.3-.3.3H102C101.9 11.8 101.8 11.9 101.8 12.1zM117.3 22.5v-5.2c0-.2-.1-.3-.3-.3h-5.8c-.2 0-.3.1-.3.3v5.2c0 .2-.1.3-.3.3h-1c-.2 0-.3-.1-.3-.3V10.7c0-.2.1-.3.3-.3h1c.2 0 .3.1.3.3v4.7c0 .2.1.3.3.3h5.8c.2 0 .3-.1.3-.3v-4.7c0-.2.1-.3.3-.3h1c.2 0 .3.1.3.3v11.9c0 .2-.1.3-.3.3h-1C117.4 22.8 117.3 22.7 117.3 22.5zM125.5 12.1v3.3c0 .2.1.3.3.3h5.5c.2 0 .3.1.3.3v.8c0 .2-.1.3-.3.3h-5.5c-.2 0-.3.1-.3.3V21c0 .2.1.3.3.3h6c.2 0 .3.1.3.3v.9c0 .2-.1.3-.3.3h-7.6c-.2 0-.3-.1-.3-.3V10.7c0-.2.1-.3.3-.3h7.4c.2 0 .3.1.3.3v.9c0 .2-.1.3-.3.3h-5.8C125.7 11.8 125.5 11.9 125.5 12.1zM141 10.4c3.1 0 4.5 1.3 4.5 3.2 0 1.5-.7 2.3-2.1 2.8l0 0c1.6.4 2.4 1.3 2.4 2.9 0 2.1-1.7 3.5-4.5 3.5h-4.9c-.2 0-.3-.1-.3-.3V10.7c0-.2.1-.3.3-.3H141zM139.1 15.1c0 .2.1.3.3.3h1.3c1.3 0 1.9-.4 1.9-1.4s-.6-1.3-1.8-1.3h-1.4c-.2 0-.3.1-.3.3V15.1zM139.1 20.2c0 .2.1.3.3.3h1.4c1.4 0 2-.4 2-1.4s-.6-1.5-2-1.5h-1.3c-.2 0-.3.1-.3.3L139.1 20.2 139.1 20.2zM160.8 16.5c0 4-2.3 6.5-6 6.5s-6-2.5-6-6.5 2.3-6.5 6-6.5C158.4 10.1 160.8 12.6 160.8 16.5zM151.9 16.5c0 2.4 1 3.9 2.9 3.9 1.8 0 2.8-1.4 2.8-3.9s-1-3.9-2.8-3.9C152.9 12.7 151.9 14.2 151.9 16.5zM173.4 22.8h-2.9c-.1 0-.2-.1-.3-.2l-2.2-4.1 0 0-2.2 4.1c-.1.1-.1.2-.3.2h-2.9c-.2 0-.4-.2-.2-.4l3.5-5.8c.1-.1.1-.2 0-.3l-3.3-5.5c-.1-.2 0-.4.2-.4h2.8c.1 0 .2.1.3.2l2 4 0 0 2-4c0-.1.2-.2.3-.2h2.8c.2 0 .4.2.2.4l-3.3 5.5c-.1.1-.1.2 0 .3l3.5 5.8C173.8 22.5 173.7 22.8 173.4 22.8z" class="colorfff svgShape"></path></svg></g></svg>