<svg width="288" height="65" xmlns="http://www.w3.org/2000/svg">

 <g>
  <title>background</title>
  <rect fill="none" id="canvas_background" height="67" width="290" y="-1" x="-1"/>
 </g>
 <g>
  <title>Layer 1</title>
  <g transform="matrix(0.9167,0,0,0.9167,11.89085882098675,11.981615576934814) " id="SvgjsG1008">
   <svg y="-121.45404" x="1.36643" id="svg_1" height="288" width="288" viewBox="0 0 176.6 33">
    <path id="svg_2" class="color9fef00 svgShape" d="m28.5,9.3c0,0 0,0 0,0c0,-0.3 -0.1,-0.6 -0.3,-0.8c0,0 0,0 0,0c0,0 0,0 -0.1,-0.1c0,0 -0.1,0 -0.1,-0.1c0,0 0,0 0,0l-12.5,-7.1c0,0 -0.1,0 -0.1,0c-0.1,-0.2 -0.3,-0.2 -0.5,-0.2c-0.1,0 -0.2,0 -0.3,0.1c-0.1,0 -0.1,0.1 -0.2,0.1l-12.4,7.1c0,0 0,0 0,0c0,0 0,0 0,0c0,0 0,0 0,0c-0.2,0.1 -0.3,0.2 -0.3,0.2c0,0 0,0 0,0c-0.2,0.2 -0.3,0.5 -0.3,0.8c0,0 0,0 0,0c0,0 0,0 0,0l0,14.3c0,0.4 0.2,0.8 0.6,1l12.4,7.1c0,0 0,0 0.1,0c0,0 0,0 0,0c0.1,0 0.1,0.1 0.2,0.1c0,0 0,0 0,0c0.1,0 0.2,0 0.2,0c0.1,0 0.2,0 0.2,0c0,0 0,0 0,0c0.1,0 0.1,0 0.2,-0.1c0,0 0,0 0,0c0,0 0,0 0.1,0l12.4,-7.1c0.4,-0.2 0.6,-0.6 0.6,-1l0.1,-14.3c0,0 0,0 0,0zm-22.2,-0.5l8.4,-4.8c0.2,-0.1 0.4,-0.1 0.5,0l8.4,4.9c0.4,0.1 0.4,0.7 0,0.9l-8.4,4.9c-0.2,0.1 -0.4,0.1 -0.5,0l-8.4,-4.9c-0.4,-0.2 -0.4,-0.8 0,-1zm7.2,18.5c0,0.4 -0.4,0.7 -0.8,0.5l-8.4,-4.9c-0.2,-0.1 -0.3,-0.3 -0.3,-0.4l0,-9.7c0,-0.4 0.4,-0.7 0.8,-0.5l8.4,4.9c0.2,0.1 0.3,0.3 0.3,0.5l0,9.6zm12.4,-4.8c0,0.2 -0.1,0.4 -0.3,0.5l-8.4,4.9c-0.4,0.2 -0.8,-0.1 -0.8,-0.5l0,-9.7c0,-0.2 0.1,-0.4 0.3,-0.5l8.4,-4.9c0.4,-0.2 0.8,0.1 0.8,0.5l0,9.7z" fill="#ffffff"/>
    <path id="svg_3" class="colorfff svgShape" d="m48.2,22.5l0,-4.6c0,-0.2 -0.1,-0.3 -0.3,-0.3l-4,0c-0.2,0 -0.3,0.1 -0.3,0.3l0,4.6c0,0.2 -0.1,0.3 -0.3,0.3l-2.4,0c-0.2,0 -0.3,-0.1 -0.3,-0.3l0,-11.8c0,-0.2 0.1,-0.3 0.3,-0.3l2.4,0c0.2,0 0.3,0.1 0.3,0.3l0,4.1c0,0.2 0.1,0.3 0.3,0.3l4,0c0.2,0 0.3,-0.1 0.3,-0.3l0,-4.1c0,-0.2 0.1,-0.3 0.3,-0.3l2.5,0c0.2,0 0.3,0.1 0.3,0.3l0,11.9c0,0.2 -0.1,0.3 -0.3,0.3l-2.4,0c-0.2,-0.1 -0.4,-0.2 -0.4,-0.4zm9.7,-2.2l-0.7,2.2c0,0.1 -0.2,0.2 -0.3,0.2l-2.6,0c-0.2,0 -0.3,-0.2 -0.3,-0.4l4,-11.9c0,-0.1 0.2,-0.2 0.3,-0.2l3.7,0c0.1,0 0.2,0.1 0.3,0.2l4,11.9c0.1,0.2 -0.1,0.4 -0.3,0.4l-2.6,0c-0.1,0 -0.2,-0.1 -0.3,-0.2l-0.7,-2.2c0,-0.1 -0.2,-0.2 -0.3,-0.2l-4.1,0c0.1,0.1 0,0.2 -0.1,0.2zm3.6,-3.5c-0.5,-1.5 -0.9,-3 -1.3,-4.5l0,0c-0.4,1.5 -0.8,3 -1.2,4.5l-0.1,0.5c-0.1,0.2 0.1,0.4 0.3,0.4l2.2,0c0.2,0 0.3,-0.2 0.3,-0.4l-0.2,-0.5zm17.7,-1.9l-2.6,0c-0.1,0 -0.3,-0.1 -0.3,-0.2c-0.2,-1.2 -1,-1.9 -2.3,-1.9c-1.6,0 -2.7,1.5 -2.7,3.9c0,2.4 1,3.9 2.6,3.9c1.2,0 2.1,-0.7 2.3,-2c0,-0.1 0.1,-0.2 0.3,-0.2l2.6,0c0.2,0 0.3,0.2 0.3,0.3c-0.4,2.9 -2.4,4.5 -5.5,4.5c-3.6,0 -5.8,-2.5 -5.8,-6.5s2.2,-6.5 5.8,-6.5c3.1,0 5.1,1.7 5.4,4.4c0.2,0.1 0.1,0.3 -0.1,0.3zm14.2,7.9l-3.1,0c-0.1,0 -0.2,0 -0.2,-0.1l-3.8,-5.7l0,0l0,5.4c0,0.2 -0.1,0.3 -0.3,0.3l-2.4,0c-0.2,0 -0.3,-0.1 -0.3,-0.3l0,-11.7c0,-0.2 0.1,-0.3 0.3,-0.3l2.4,0c0.2,0 0.3,0.1 0.3,0.3l0,5.1l0,0l3.6,-5.2c0.1,-0.1 0.1,-0.1 0.2,-0.1l2.9,0c0.2,0 0.4,0.3 0.2,0.5l-4,5.2c-0.1,0.1 -0.1,0.2 0,0.4l4.4,5.9c0.1,0 0,0.3 -0.2,0.3zm8.4,-10.7l0,10.4c0,0.2 -0.1,0.3 -0.3,0.3l-1,0c-0.2,0 -0.3,-0.1 -0.3,-0.3l0,-10.4c0,-0.2 -0.1,-0.3 -0.3,-0.3l-3.7,0c-0.2,0 -0.3,-0.1 -0.3,-0.3l0,-0.9c0,-0.2 0.1,-0.3 0.3,-0.3l9.5,0c0.2,0 0.3,0.1 0.3,0.3l0,0.9c0,0.2 -0.1,0.3 -0.3,0.3l-3.7,0c-0.1,0 -0.2,0.1 -0.2,0.3zm15.5,10.4l0,-5.2c0,-0.2 -0.1,-0.3 -0.3,-0.3l-5.8,0c-0.2,0 -0.3,0.1 -0.3,0.3l0,5.2c0,0.2 -0.1,0.3 -0.3,0.3l-1,0c-0.2,0 -0.3,-0.1 -0.3,-0.3l0,-11.8c0,-0.2 0.1,-0.3 0.3,-0.3l1,0c0.2,0 0.3,0.1 0.3,0.3l0,4.7c0,0.2 0.1,0.3 0.3,0.3l5.8,0c0.2,0 0.3,-0.1 0.3,-0.3l0,-4.7c0,-0.2 0.1,-0.3 0.3,-0.3l1,0c0.2,0 0.3,0.1 0.3,0.3l0,11.9c0,0.2 -0.1,0.3 -0.3,0.3l-1,0c-0.2,-0.1 -0.3,-0.2 -0.3,-0.4zm8.2,-10.4l0,3.3c0,0.2 0.1,0.3 0.3,0.3l5.5,0c0.2,0 0.3,0.1 0.3,0.3l0,0.8c0,0.2 -0.1,0.3 -0.3,0.3l-5.5,0c-0.2,0 -0.3,0.1 -0.3,0.3l0,3.6c0,0.2 0.1,0.3 0.3,0.3l6,0c0.2,0 0.3,0.1 0.3,0.3l0,0.9c0,0.2 -0.1,0.3 -0.3,0.3l-7.6,0c-0.2,0 -0.3,-0.1 -0.3,-0.3l0,-11.8c0,-0.2 0.1,-0.3 0.3,-0.3l7.4,0c0.2,0 0.3,0.1 0.3,0.3l0,0.9c0,0.2 -0.1,0.3 -0.3,0.3l-5.8,0c-0.1,-0.1 -0.3,0 -0.3,0.2zm15.5,-1.7c3.1,0 4.5,1.3 4.5,3.2c0,1.5 -0.7,2.3 -2.1,2.8l0,0c1.6,0.4 2.4,1.3 2.4,2.9c0,2.1 -1.7,3.5 -4.5,3.5l-4.9,0c-0.2,0 -0.3,-0.1 -0.3,-0.3l0,-11.8c0,-0.2 0.1,-0.3 0.3,-0.3l4.6,0zm-1.9,4.7c0,0.2 0.1,0.3 0.3,0.3l1.3,0c1.3,0 1.9,-0.4 1.9,-1.4s-0.6,-1.3 -1.8,-1.3l-1.4,0c-0.2,0 -0.3,0.1 -0.3,0.3l0,2.1zm0,5.1c0,0.2 0.1,0.3 0.3,0.3l1.4,0c1.4,0 2,-0.4 2,-1.4s-0.6,-1.5 -2,-1.5l-1.3,0c-0.2,0 -0.3,0.1 -0.3,0.3l-0.1,2.3l0,0zm21.7,-3.7c0,4 -2.3,6.5 -6,6.5s-6,-2.5 -6,-6.5s2.3,-6.5 6,-6.5c3.6,0.1 6,2.6 6,6.5zm-8.9,0c0,2.4 1,3.9 2.9,3.9c1.8,0 2.8,-1.4 2.8,-3.9s-1,-3.9 -2.8,-3.9c-1.9,0.1 -2.9,1.6 -2.9,3.9zm21.5,6.3l-2.9,0c-0.1,0 -0.2,-0.1 -0.3,-0.2l-2.2,-4.1l0,0l-2.2,4.1c-0.1,0.1 -0.1,0.2 -0.3,0.2l-2.9,0c-0.2,0 -0.4,-0.2 -0.2,-0.4l3.5,-5.8c0.1,-0.1 0.1,-0.2 0,-0.3l-3.3,-5.5c-0.1,-0.2 0,-0.4 0.2,-0.4l2.8,0c0.1,0 0.2,0.1 0.3,0.2l2,4l0,0l2,-4c0,-0.1 0.2,-0.2 0.3,-0.2l2.8,0c0.2,0 0.4,0.2 0.2,0.4l-3.3,5.5c-0.1,0.1 -0.1,0.2 0,0.3l3.5,5.8c0.4,0.1 0.3,0.4 0,0.4z" fill="#ffffff"/>
   </svg>
  </g>
 </g>
</svg>